<svg xmlns="http://www.w3.org/2000/svg" xmlns:xlink="http://www.w3.org/1999/xlink" x="0px" y="0px" width="64px" height="64px" viewBox="0 0 64 64" stroke-width="2"><g stroke-width="2" transform="translate(0.5, 0.5)"><path d="M2,50a13.865,13.865,0,0,0,10.227-4.5,13.872,13.872,0,0,0,20.455,0,13.893,13.893,0,0,0,19.773.71A13.8,13.8,0,0,0,62,50" fill="none" stroke="#000000" stroke-linecap="square" stroke-miterlimit="10" stroke-width="2" stroke-linejoin="miter"></path> <path d="M2,35a13.865,13.865,0,0,0,10.227-4.5,13.872,13.872,0,0,0,20.455,0,13.893,13.893,0,0,0,19.773.71A13.8,13.8,0,0,0,62,35" fill="none" stroke="#000000" stroke-linecap="square" stroke-miterlimit="10" stroke-width="2" data-color="color-2" stroke-linejoin="miter"></path> <path d="M2,20a13.865,13.865,0,0,0,10.227-4.5,13.872,13.872,0,0,0,20.455,0,13.893,13.893,0,0,0,19.773.71A13.8,13.8,0,0,0,62,20" fill="none" stroke="#000000" stroke-linecap="square" stroke-miterlimit="10" stroke-width="2" stroke-linejoin="miter"></path></g></svg>